<svg version="1.1" xmlns="http://www.w3.org/2000/svg" xmlns:xlink="http://www.w3.org/1999/xlink" width="48px" height="48px" viewBox="0,0,256,256"><g fill="#f9f9f9" fill-rule="evenodd" stroke="none" stroke-width="1" stroke-linecap="butt" stroke-linejoin="miter" stroke-miterlimit="10" stroke-dasharray="" stroke-dashoffset="0" font-family="none" font-weight="none" font-size="none" text-anchor="none" style="mix-blend-mode: normal"><g transform="translate(0,2.66133) scale(5.33333,5.33333)"><path d="M24.804,43.648l-0.804,0.352l-0.804,-0.352c-10.334,-6.335 -21.196,-20.755 -21.196,-28.764c0.035,-6.558 5.404,-11.882 12,-11.882c4.169,0 7.849,2.128 10,5.349c2.151,-3.221 5.831,-5.349 10,-5.349c6.596,0 11.965,5.324 12,11.882c0,8.009 -10.862,22.429 -21.196,28.764zM34,4.993c-3.354,0 -6.469,1.667 -8.335,4.46l-1.665,2.493l-1.665,-2.494c-1.866,-2.792 -4.981,-4.459 -8.335,-4.459c-5.484,0 -9.971,4.442 -10,9.891c0,7.064 10.234,20.808 20,26.917c9.766,-6.109 20,-19.852 20,-26.907c-0.029,-5.459 -4.516,-9.901 -10,-9.901z"></path></g></g></svg>